<?xml version="1.0" encoding="UTF-8"?>
<svg version="1.1" id="RGB_additive" xmlns="http://www.w3.org/2000/svg" xmlns:xlink="http://www.w3.org/1999/xlink" x="0px" y="0px" width="400px" height="400px" viewBox="0 0 400 400" style="enable-background:new 0 0 400 400;" xml:space="preserve">
  <style type="text/css">
    .cls1 {fill:#ff0000;}
    .cls2 {fill:#00ff00;}
    .cls3 {fill:#0000ff;}
    .cls4 {fill:#ffff00;}
    .cls5 {fill:#ff00ff;}
    .cls6 {fill:#00ffff;}
    .cls7 {fill:#ffffff;}
  </style>
  <g id="red">
    <path class="cls1" d="M200,13.71a130,130,0,0,0-130,130H330A130,130,0,0,0,200,13.71Z"/>
    <path d="M186.17,56.42a80.42,80.42,0,0,1,12.18-.84c6,0,10.2.9,13.08,3.18a10.27,10.27,0,0,1,3.72,8.46,10.73,10.73,0,0,1-7.14,10v.18c2.82,1.14,4.38,3.84,5.4,7.56,1.26,4.56,2.52,9.84,3.3,11.4h-9.36c-.66-1.2-1.62-4.44-2.82-9.42s-2.82-6.42-6.54-6.48h-2.76v15.9h-9.06Zm9.06,17.4h3.6c4.56,0,7.26-2.28,7.26-5.82,0-3.72-2.52-5.58-6.72-5.64a22.78,22.78,0,0,0-4.14.3Z"/>
  </g>
  <g id="green">
    <path class="cls2" d="M70,143.69a130,130,0,0,0,130,225.2Z"/>
    <path d="M96,304.54a45.25,45.25,0,0,1-13.5,2.28c-7.38,0-12.72-1.86-16.44-5.46s-5.76-8.76-5.7-14.7c.06-13.44,9.84-21.12,23.1-21.12a27.83,27.83,0,0,1,11.22,2l-1.92,7.32a22.41,22.41,0,0,0-9.42-1.74c-7.62,0-13.38,4.32-13.38,13.08,0,8.34,5.22,13.26,12.72,13.26a12.26,12.26,0,0,0,4.5-.6v-8.46H80.93v-7.14H96Z"/>
  </g>
  <g id="blue">
    <path class="cls3" d="M330,143.69,200,368.89a130,130,0,0,0,130-225.2Z"/>
    <path d="M307.13,266.5a72.92,72.92,0,0,1,11.82-.84c5.58,0,9,.54,11.94,2.28a8.8,8.8,0,0,1,4.86,7.92c0,3.6-2.1,7-6.66,8.64v.12c4.62,1.26,8,4.74,8,10a10.77,10.77,0,0,1-4.2,8.58c-2.94,2.34-7.86,3.66-15.9,3.66a70.8,70.8,0,0,1-9.9-.6ZM316.19,282h3c4.8,0,7.38-2,7.38-5s-2.34-4.68-6.48-4.68a25,25,0,0,0-3.9.24Zm0,17.94a28.83,28.83,0,0,0,3.54.12c4.14,0,7.8-1.62,7.8-5.82s-3.66-5.7-8.22-5.7h-3.12Z"/>
  </g>
  <g id="yellow">
    <path class="cls4" d="M200,143.69a130.13,130.13,0,0,0-130,0v0A129.94,129.94,0,0,0,135,256.3Z"/>
  </g>
  <g id="magenta">
    <path class="cls5" d="M330,143.69a130.13,130.13,0,0,0-130,0L265,256.3a129.94,129.94,0,0,0,65-112.59Z"/>
  </g>
  <g id="cyan">
    <path class="cls6" d="M200,368.89a130,130,0,0,0,65-112.6H135A130,130,0,0,0,200,368.89Z"/>
  </g>
  <g id="white">
    <path class="cls7" d="M200,143.69a130,130,0,0,0-65,112.6v0a130.13,130.13,0,0,0,130,0v0A130,130,0,0,0,200,143.69Z"/>
  </g>
</svg>